<svg id="Capa_1" enable-background="new 0 0 510 510" height="512" viewBox="0 0 510 510" width="512" xmlns="http://www.w3.org/2000/svg"><g><path d="m451 510c-8.284 0-15-6.716-15-15v-112c0-8.284 6.716-15 15-15s15 6.716 15 15v112c0 8.284-6.716 15-15 15z" fill="#303a6d"/><path d="m399 0c-36.944 0-67 30.056-67 67v352c0 33.636-27.364 61-61 61-8.254 0-33.824 0-43.404 0-31.759 0-57.596-25.837-57.596-57.596v-15.404c0-8.284-6.716-15-15-15s-15 6.716-15 15v15.404c0 48.3 39.295 87.596 87.596 87.596h43.404c50.178 0 91-40.822 91-91v-352c0-20.402 16.598-37 37-37s37 16.598 37 37v172c0 8.284 6.716 15 15 15s15-6.716 15-15v-172c0-36.944-30.056-67-67-67z" fill="#303a6d"/><g fill="#4d578c"><path d="m45.025 151.67c-8.168 0-14.856-6.552-14.993-14.75l-2.03-121.67c-.139-8.369 6.603-15.25 15.003-15.25 8.168 0 14.856 6.552 14.993 14.75l2.03 121.67c.139 8.369-6.602 15.25-15.003 15.25z"/><path d="m50.995 510c-8.169 0-14.856-6.552-14.993-14.751l-1.47-88.46c-.138-8.283 6.466-15.109 14.749-15.247 8.257-.152 15.108 6.466 15.247 14.749l1.47 88.46c.139 8.369-6.603 15.249-15.003 15.249z"/><path d="m162 31v48c0 8.28-6.72 10-15 10s-15-1.72-15-10v-33h-89c-8.28 0-15-6.72-15-15s6.72-15 15-15h104c8.28 0 15 6.72 15 15z"/></g><path d="m283 120h-76.69l-4.1-14.35c-7-24.52-29.71-41.65-55.21-41.65s-48.21 17.13-55.21 41.65l-4.1 14.35h-60.69c-8.28 0-15 6.72-15 15v57l5.79 16.34-5.79 13.66v98l9.02 15-9.02 15 16 50.68c0 8.28 7.74 8.68 16.02 8.68h229.77c8.28 0 15.83-3.08 15.83-11.36 10.552-162.076 8.38-101.846 8.38-263 0-8.28-6.72-15-15-15zm-109.63-6.11c-3.35-11.71-14.19-19.89-26.37-19.89s-23.02 8.18-26.37 19.89l-1.74 6.11h56.22z" fill="#e6ffff"/><path d="m298 135c0 161.157 2.172 100.936-8.38 263 0 8.28-7.55 11.36-15.83 11.36h-126.79v-289.36h28.11l-1.74-6.11c-3.35-11.71-14.19-19.89-26.37-19.89v-30c25.5 0 48.21 17.13 55.21 41.65l4.1 14.35h76.69c8.28 0 15 6.72 15 15z" fill="#d9f2ff"/><path d="m256.14 256.41c-21.23-6.44-43.1-5.82-66.56 4.33-22.12 9.48-47.16 10.11-69.8 1.61l-5.97-2.24c-23.56-8.84-49.69-7.81-72.5 2.83l-29.31 13.68v43.38l9.02 15-9.02 15v57c0 8.28 6.72 15 15 15h256c8.28 0 15-6.72 15-15v-137.71z" fill="#ff6426"/><path d="m298 269.29v137.71c0 8.28-6.72 15-15 15h-136v-153.86c15.875.95 29.724-1.865 44.69-8.31 19.739-8.453 41.956-10.245 64.45-3.42z" fill="#cf3b00"/><path d="m451 224c-25.916 0-47 21.084-47 47v80c0 25.916 21.084 47 47 47s47-21.084 47-47v-80c0-25.916-21.084-47-47-47z" fill="#d9f2ff"/><path d="m106 207c0 8.28-6.72 15-15 15h-79v-30h79c8.28 0 15 6.72 15 15z" fill="#d9f2ff"/><path d="m106 335c0 8.28-6.72 15-15 15h-79v-30h79c8.28 0 15 6.72 15 15z" fill="#d9f2ff"/></g></svg>